# xmcd
#
# Track frame offsets:
#	150
#	16372
#	31842
#	57251
#	76571
#	91145
#	105683
#	125069
#	140558
#	157497
#	173411
#	187942
#
# Disc length: 2874 seconds
#
# Revision: 0
# Processed by: cddbd v1.5.2PL0 Copyright (c) Steve Scherf et al.
# Submitted via: audiograbber 1.83.01
#
DISCID=910b380c
DTITLE=Cdpool - Urban June 2010 CD1
DYEAR=2010
DGENRE=R&B
TTITLE0=Big Boi - Shutterbug
TTITLE1=New Boyz - Cricketz
TTITLE2=Ty Ft Sway and Roses Gabor - Heart Is Breaking
TTITLE3=G FrSH Ft Tinie Tempah - Afar
TTITLE4=Rolo Ft Sargent Ragz - This and That (Original Mix)
TTITLE5=Femii - Broken Record
TTITLE6=Funky Twinz - Energizer
TTITLE7=Breakbeat UKSP - Give The Drummer Sum (Original Mix)
TTITLE8=Gtown Desi Ft Nikitta - Type Of Guy
TTITLE9=Natalie Williams - Keep Me Holding On (Radio Edit)
TTITLE10=Livin Out Loud - Cuz I Gotta Know (Souled Out Remix)
TTITLE11=Soul Basics Ft Kyla Sexton - Rest Your Mind (Kyla's Beach-Ball Mix)
EXTD=
EXTT0=
EXTT1=
EXTT2=
EXTT3=
EXTT4=
EXTT5=
EXTT6=
EXTT7=
EXTT8=
EXTT9=
EXTT10=
EXTT11=
PLAYORDER=
